<?xml version="1.0" encoding="utf-8"?>
<!-- Generator: Adobe Illustrator 24.3.0, SVG Export Plug-In . SVG Version: 6.00 Build 0)  -->
<svg version="1.1" xmlns="http://www.w3.org/2000/svg" xmlns:xlink="http://www.w3.org/1999/xlink" x="0px" y="0px"
	 viewBox="0 0 2923.4 393.8" style="enable-background:new 0 0 2923.4 393.8;" xml:space="preserve">
<style type="text/css">
	.st0{display:none;}
	.st1{display:inline;fill:#AF2B27;}
	.st2{display:inline;fill:#F1F2E9;}
	.st3{fill:url(#SVGID_1_);}
	.st4{fill:url(#SVGID_2_);}
	.st5{fill:url(#SVGID_3_);}
	.st6{display:inline;fill:#3239B2;}
	.st7{display:inline;fill:#FFFFFF;}
	.st8{display:inline;fill:none;}
	.st9{display:inline;fill:url(#SVGID_4_);}
	.st10{font-family:'BoogieNightsNF';}
	.st11{font-size:269.2396px;}
	.st12{letter-spacing:-26;}
	.st13{font-family:'Mascarpone-Oblique';}
	.st14{font-size:116px;}
	.st15{letter-spacing:8;}
	.st16{fill:#FFFFFF;}
	.st17{fill:#009471;}
	.st18{fill:url(#SVGID_5_);}
	.st19{fill:url(#SVGID_6_);}
	.st20{fill:url(#SVGID_7_);}
	.st21{display:inline;fill:url(#SVGID_8_);}
</style>
<g id="fondo" class="st0">
	<rect class="st1" width="2923.4" height="393.8"/>
	
		<image style="display:inline;overflow:visible;" width="993" height="555" xlink:href="../../../../../Captura de pantalla 2021-06-09 a la(s) 14.09.20.png"  transform="matrix(1 0 0 1 301.873 -666.6478)">
	</image>
	<rect x="-414.5" y="630.6" class="st2" width="217.2" height="377.7"/>
	<rect x="-151.7" y="892.1" class="st1" width="217.2" height="377.7"/>
</g>
<g id="texto">
	<g id="Capa_4_1_">
		
			<linearGradient id="SVGID_1_" gradientUnits="userSpaceOnUse" x1="-345.011" y1="334.3904" x2="92.9637" y2="200.4882" gradientTransform="matrix(1 0 0 -1 382.4254 393.8933)">
			<stop  offset="5.795645e-02" style="stop-color:#FFFFFF"/>
			<stop  offset="0.1214" style="stop-color:#CBFFFF"/>
			<stop  offset="0.1572" style="stop-color:#96FFFF"/>
			<stop  offset="0.203" style="stop-color:#68FFFF"/>
			<stop  offset="0.254" style="stop-color:#43FFFF"/>
			<stop  offset="0.316" style="stop-color:#25FFFF"/>
			<stop  offset="0.371" style="stop-color:#11FFFF"/>
			<stop  offset="0.4846" style="stop-color:#04FFFF"/>
			<stop  offset="0.6067" style="stop-color:#00FFFF"/>
			<stop  offset="0.9123" style="stop-color:#019471"/>
		</linearGradient>
		<path class="st3" d="M66.8,158.9c-11.7,0-21.8-5.2-30.2-16.1c-8.4-10.7-12.7-23.6-12.9-38.4h462.3v54.4H66.8z"/>
		
			<linearGradient id="SVGID_2_" gradientUnits="userSpaceOnUse" x1="-306.165" y1="261.2795" x2="94.7038" y2="138.7216" gradientTransform="matrix(1 0 0 -1 382.4254 393.8933)">
			<stop  offset="5.795645e-02" style="stop-color:#FFFFFF"/>
			<stop  offset="0.1214" style="stop-color:#CBFFFF"/>
			<stop  offset="0.1572" style="stop-color:#96FFFF"/>
			<stop  offset="0.203" style="stop-color:#68FFFF"/>
			<stop  offset="0.254" style="stop-color:#43FFFF"/>
			<stop  offset="0.316" style="stop-color:#25FFFF"/>
			<stop  offset="0.371" style="stop-color:#11FFFF"/>
			<stop  offset="0.4846" style="stop-color:#04FFFF"/>
			<stop  offset="0.6067" style="stop-color:#00FFFF"/>
			<stop  offset="0.9025" style="stop-color:#008C4C"/>
		</linearGradient>
		<path class="st4" d="M107.6,226.4c-11.8,0-22.1-5.2-30.4-16.1c-8.4-10.7-12.7-23.6-12.9-38.4h421.7v54.4H107.6z"/>
		
			<linearGradient id="SVGID_3_" gradientUnits="userSpaceOnUse" x1="-267.0824" y1="188.2912" x2="96.4485" y2="77.1487" gradientTransform="matrix(1 0 0 -1 382.4254 393.8933)">
			<stop  offset="5.795645e-02" style="stop-color:#FFFFFF"/>
			<stop  offset="0.1214" style="stop-color:#CBFFFF"/>
			<stop  offset="0.1572" style="stop-color:#96FFFF"/>
			<stop  offset="0.203" style="stop-color:#68FFFF"/>
			<stop  offset="0.254" style="stop-color:#43FFFF"/>
			<stop  offset="0.316" style="stop-color:#25FFFF"/>
			<stop  offset="0.371" style="stop-color:#11FFFF"/>
			<stop  offset="0.4846" style="stop-color:#04FFFF"/>
			<stop  offset="0.6067" style="stop-color:#00FFFF"/>
			<stop  offset="0.9025" style="stop-color:#008C4C"/>
		</linearGradient>
		<path class="st5" d="M148.2,293.7c-11.8,0-22.1-5.5-30.4-16.2c-8.4-10.5-12.6-23.4-12.7-38.2h380.9v54.4H148.2z"/>
	</g>
	<g id="Capa_3" class="st0">
		<rect x="577.1" y="-87" class="st6" width="1773" height="568.7"/>
	</g>
	<g id="Layer_1" class="st0">
		<path class="st7" d="M1899.9,280.4c-14.4,3.3-52.3,5.2-52.3,5.2l-4.8,15c0,0,18.9-1.6,32.7-0.2c0,0,4.5-0.5,5,5.1
			c0.1,3.6,0,7.2-0.4,10.8c0,0-0.3,3.4-5.1,4.2c-5.2,0.9-40.8,2.2-40.8,2.2l-5.8,19.5c0,0-2.1,4.5,2.7,3.2
			c4.5-1.2,41.8-8.2,46.7-7.2c5.2,1.3,11,8.2,9.3,14.6c-2,7.8-39.2,31.6-61.9,29.9c0,0-11.9,0.8-22-15.3
			c-9.4-15.3,3.6-44.4,3.6-44.4s-5.9-13.6-1.6-18.1c0,0,2.6-2.3,10-2.9l9.1-18.9c0,0-10.4,0.7-16.6-6.9c-5.8-7.3-6.2-10.6-1.8-12.6
			c4.7-2.3,48-10.2,77.8-9.2c0,0,10.4-1,19.3,17C1902.9,271.4,1907.3,278.7,1899.9,280.4L1899.9,280.4z M1787.8,353
			c-3.8,9-13.9,18.6-26.4,12.6s-32.1-46.3-32.1-46.3s-7.5-15-8.9-14.7c0,0-1.6-2.9-2.6,13.5s0.2,48.3-6.3,53.3
			c-6.2,5-13.7,3-17.6-2.9c-3.5-5.8-5-19.6-3.1-43.8c2.3-24.2,7.9-50,15.1-58.1s13-2.2,15.2-0.1c0,0,9.6,8.7,25.5,34.3l2.8,4.7
			c0,0,14.4,24.2,15.9,24.1c0,0,1.2,1.1,2.2,0.3c1.5-0.4,0.9-8.2,0.9-8.2s-3-26.3-16.1-70.9c0,0-2-5.6-0.6-10.8
			c1.4-5.2,6.6-2.8,6.6-2.8s20.4,10.2,30.2,43.4C1798.2,314.1,1791.6,344,1787.8,353L1787.8,353z M1687.6,267.7
			c-1.7,3.4-2.7,8.3-11.3,9.6c0,0-82.3,5.6-86.2,11.4c0,0-2.9,3.4,1.6,4.4s23.1,3.4,32.1,3.9c9.6,0.1,42,0.4,53.6,14.9
			c0,0,6.9,6.9,6.6,22.5c-0.3,16-3.1,21.6-9.3,27.4c-6.5,5.4-62.3,30.4-98.3-8c0,0-16.6-18.5,5.7-32.5c0,0,16.1-9.7,57,1.7
			c0,0,12.4,4.5,11.8,9c-0.7,4.8-10.2,9.9-24,9.6c-13.4-0.4-23.2-6.8-21.3-5.8c1.8,0.7-14.4-7.8-19.4-2c-5,5.3-3.8,8.6,1.1,11.9
			c12.5,7.1,60.8,4.6,75.2-11.4c0,0,5.7-6.5-3-11.8c-8.7-5-33.6-8-43.3-8.5c-9.3-0.5-43.9,0.1-48.9-9.1c0,0-5-6.2,0.5-23.8
			c5.8-18.4,46.1-25.5,63.5-27.1c0,0,47.9-1.7,56.7,8.1C1688.6,263.9,1688.5,266,1687.6,267.7L1687.6,267.7z M1551.6,375.6
			c-5.8,4.3-18.1,2.4-21.6-2.4c-3.5-4.3-4.7-21.4-4-48.2c0.7-27.1,1.3-60.7,7.1-66c6.2-5.4,10-0.7,12.4,3c2.6,3.6,5.7,7.6,6.4,16.1
			c0.7,8.5,2.6,53.1,2.6,53.1S1557.1,371.4,1551.6,375.6z M1564.1,231.8c-16.9,5.6-28.5,3.7-38.3-0.5c-4.3,7.5-6.8,9.8-10.1,10.3
			c-4.8,0.5-9.1-7.2-9.9-9.7c-0.8-1.9-3.1-5.1-0.3-12.7c-9.6-8.6-10.3-20.2-8.7-28c2.4-9,18.6-43.2,67.9-47.2
			c0,0,24.1-1.8,28.2,11.1h0.7c0,0,23.4,0.1,22.9,20.9C1616.2,196.9,1590.5,222.9,1564.1,231.8L1564.1,231.8z M1518.1,185.5
			c-5,8-5.2,12.8-2.9,16.1c5.7-8.7,16.1-22.4,31.4-32.8C1534.8,169.8,1524.9,174.9,1518.1,185.5z M1586.2,172.1
			c-15.5,2.3-39.5,23.1-50.9,40.1c17.5,3.2,48.4,2,62.1-25.9C1597.3,186.3,1603.9,169,1586.2,172.1z M2007,333.2
			c-9.3,16.2-35.4,50-70.2,42.1c-11.5,27.9-21.1,56-26.6,98.2c0,0-1.2,8.2-8,5.3c-6.7-2.4-17.9-13.6-20.1-29.1
			c-2.4-20.4,6.7-54.9,25.2-94.4c-5.4-8.8-9.1-21.4-5.9-39.3c0,0,4.7-33.2,38-63.2c0,0,4-3.5,6.3-2.4c2.6,1.1,1.4,11.9-0.7,17.1
			s-17,31-17,31s-9.3,17.4-6.7,31.1c17.5-26.9,57.3-81.2,82-64.1c8.3,5.9,12.1,18.8,12.1,32.7C2015.3,310.5,2012.4,323.5,2007,333.2
			L2007,333.2z M1999.8,290.6c0,0-1.4-10.7-11.8,1.1c-9,9.9-25.2,28.6-38.3,53.9c13.7-1.5,26.9-9,30.9-12.8
			C1987.1,327,2002.2,311.4,1999.8,290.6L1999.8,290.6z M1514.3,304.2c-1.9,24.2-11.2,64.9-77.1,85c-43.5,13.1-84.6,6.8-107,1.1
			c-0.5,8.9-1.5,12.7-2.9,14.2c-1.9,1.9-16.1,10.1-23.9-1.5c-3.5-5.5-5.3-15.5-6.3-24.4c-50.4-23.2-73.6-56.6-74.5-58.1
			c-1.1-1.1-12.6-13.1-1.1-27.8c10.8-13.3,46.1-26.6,77.9-32c1.1-27.2,4.3-47.7,8.1-57.1c4.6-10.9,10.4-1.1,15.4,6.3
			c4.2,5.5,6.7,29.2,6.9,48.1c20.8-1,33.1,0.5,56.3,4.7c30.2,5.5,50.4,20.9,48.6,38.4c-1.3,17.2-17.1,24.3-23.1,24.8
			c-6.3,0.5-16.1-4-16.1-4c-6.7-3.2-0.5-6,7.6-9.5c8.8-4.3,6.8-8.7,6.8-8.7c-3.3-9.6-42.5-16.3-81.5-16.3c-0.2,21.5,0.9,57.2,1.4,78
			c27.3,5.2,47.7,4.2,47.7,4.2s99.6-2.8,102.6-66.4s-99.3-124.8-175-144.2c-75.6-19.8-118.4-6-122.1-4.1c-4,2-0.3,2.6-0.3,2.6
			c3.8,0.7,7.6,1.7,11.2,3c7.5,2.4,1.7,6.3,1.7,6.3c-12.9,4.1-27.4,1.5-30.2-4.4c-2.8-5.9,1.9-11.2,7.3-18.8
			c5.4-8,11.3-7.7,11.3-7.7c93.5-32.4,207.4,26.2,207.4,26.2C1498.1,216.2,1516.3,279.6,1514.3,304.2z M1232.1,300.9
			c-10.6,5.2-3.3,12.7-3.3,12.7c19.9,21.4,44.4,34.8,67.7,43.1c2.7-36.9,2.3-49.9,2.6-68.5C1262.7,290.7,1241.7,296.5,1232.1,300.9
			L1232.1,300.9z"/>
		<path class="st7" d="M2205,293.3v13.2c0,2.8-2.3,5.2-5.1,5.2h-0.1h-62.9c0,3.3,0.1,6.2,0.1,8.9c0.1,17.8-0.8,35.6-2.7,53.3
			c-0.2,2.6-2.4,4.7-5.1,4.7h-13.6c-1.4,0-2.7-0.6-3.6-1.6c-0.9-1-1.4-2.4-1.2-3.8c1.9-17.5,2.8-35,2.8-52.6c0-2.8,0-5.7-0.1-8.9
			h-62.2c-2.8,0-5.2-2.3-5.2-5.1v-0.1v-13.2c0-2.8,2.3-5.2,5.1-5.2h0.1h61.3c-1.2-21.2-3.9-42.3-8.1-63.2c-0.2-1.3,0.1-2.6,0.9-3.6
			s2-1.6,3.3-1.6h14.7c2.3,0,4.3,1.6,4.7,3.9c4,21.3,6.7,42.9,8,64.5h63.7C2202.7,288.1,2205,290.4,2205,293.3z"/>
		<path class="st8" d="M1364.3,119L1364.3,119 M1363.5,119.1c-0.3,0-0.6-0.1-0.9-0.1C1362.9,119.1,1363.2,119.1,1363.5,119.1
			L1363.5,119.1z M1363.5,119.1c-0.3,0-0.6-0.1-0.9-0.1C1362.9,119.1,1363.2,119.1,1363.5,119.1L1363.5,119.1z"/>
		
			<radialGradient id="SVGID_4_" cx="2106.6648" cy="-79.1983" r="760.12" gradientTransform="matrix(1 0 0 -1 0 115.4036)" gradientUnits="userSpaceOnUse">
			<stop  offset="1.000000e-02" style="stop-color:#FFFFFF"/>
			<stop  offset="3.000000e-02" style="stop-color:#CBFFFF"/>
			<stop  offset="6.000000e-02" style="stop-color:#96FFFF"/>
			<stop  offset="8.000000e-02" style="stop-color:#68FFFF"/>
			<stop  offset="0.11" style="stop-color:#43FFFF"/>
			<stop  offset="0.14" style="stop-color:#25FFFF"/>
			<stop  offset="0.16" style="stop-color:#11FFFF"/>
			<stop  offset="0.19" style="stop-color:#04FFFF"/>
			<stop  offset="0.22" style="stop-color:#00FFFF"/>
			<stop  offset="1" style="stop-color:#0000FF;stop-opacity:0"/>
		</radialGradient>
		<path class="st9" d="M2119.4,188.6C2028.1-36,1772-144,1547.5-52.7c-81.5,33.1-151.2,90-200,163.3c-0.9,1.3-1.1,3-0.6,4.5
			s1.7,2.7,3.2,3.2l11.4,3.9c0.6,0.2,1.3,0.3,2,0.3c2.1,0,4.1-1.1,5.3-2.8c77.3-114,206.2-182.2,343.9-182.2
			c167.1,0,318,100,383.1,253.9c0.9,2.2,3.1,3.7,5.5,3.7h13.6c1.6,0,3-0.8,3.9-2.1C2119.8,191.8,2120,190.1,2119.4,188.6z
			 M1363.5,119.1c-0.3,0-0.6-0.1-0.9-0.2C1362.9,119,1363.2,119.1,1363.5,119.1L1363.5,119.1z M2098.5,193.3
			c0.3,0.2,0.6,0.4,0.9,0.5C2099.1,193.6,2098.8,193.5,2098.5,193.3z"/>
	</g>
	<g id="TXT" class="st0">
		<text transform="matrix(1 0 0 1 910.1452 310.7018)" class="st7 st10 st11 st12">DOG &amp; CAT</text>
		<text transform="matrix(1 0 0 1 910.1447 418.7013)" class="st7 st13 st14 st15">HOSPITAL</text>
	</g>
	<g>
		<path class="st16" d="M722.2,191.3c0,32.3-8,62.1-23.7,89.5c-15.9,27.3-37.5,48.9-64.8,64.8c-27.3,15.9-57.1,23.7-89.5,23.7H415.1
			V12.9h129.1c49.2,0,91.1,17.3,125.9,52.1C704.8,99.7,722.2,141.8,722.2,191.3z M687.8,191.3c0-39.8-14-73.7-42-101.7
			c-28-28-61.9-42-101.7-42h-19.8v286.5h19.8c39.4,0,73.3-14,101.4-41.8C673.8,264.5,687.8,230.7,687.8,191.3z"/>
		<path class="st16" d="M1043.9,191.3c0,49.2-17.3,91.1-51.9,125.9c-34.7,34.8-76.5,52.1-125.7,52.1c-32.3,0-62.1-8-89.5-23.7
			c-27.3-15.9-48.9-37.5-64.8-64.8s-23.7-57.1-23.7-89.5c0-49.4,17.3-91.5,51.9-126.3c34.7-34.8,76.6-52.1,126-52.1
			S957.6,30.2,992.1,65C1026.7,99.7,1043.9,141.8,1043.9,191.3z M967.9,292.4c28-27.7,42-61.5,42-101.3s-14-73.7-42-101.7
			c-28-28-61.9-42-101.7-42c-39.8,0-73.7,14-101.7,42c-28,28-42,61.9-42,101.7s14,73.5,42,101.3c28,27.7,61.9,41.6,101.7,41.6
			C906,334.1,939.9,320.3,967.9,292.4z"/>
		<path class="st16" d="M1317.5,369.3h-129.1c-49.2,0-91.3-17.3-126-52.1c-34.9-34.8-52.4-76.8-52.4-125.9
			c0-49.4,17.3-91.5,52.1-126.3s76.9-52.1,126.3-52.1h129.1v34.8h-129.1c-39.4,0-73.2,14-101.3,42c-28.4,28.4-42.5,62.2-42.5,101.7
			s14.1,73.2,42.2,101c28.1,27.9,62,41.8,101.4,41.8h19.8V142.4h-94v-34.3h203.3v261.2H1317.5z"/>
	</g>
	<g>
		<path class="st17" d="M1511.9,374.8h-94.4V245.5h-129.3v-94.4h129.3V21.8h94.4v129.3h129.3v94.4h-129.3V374.8z"/>
	</g>
	<path class="st16" d="M1551.9,288.9c-16.3,0-30.3-5.9-41.8-17.8c-14.9,10.9-31.1,16.3-48.6,16.3c-13.5,0-26.3-2.9-38.4-8.6
		s-22-14.2-29.8-25.1c-7.8-11-11.7-23.3-11.7-36.9c0-15.9,5-29.9,14.9-42c9.9-12.1,22.7-20.6,38.2-25.4c-4.7-6.9-7-15.3-7-25.1
		c0-9.6,3.4-17.9,10.2-24.9c6.8-7,15-10.4,24.7-10.4c9.6,0,17.9,3.5,24.8,10.4c6.9,7,10.4,15.3,10.4,24.9c0,14.4-7.2,25.9-21.7,34.4
		c8,6.6,15,14.4,21,23.5c6,9.1,10.2,18.4,12.6,28c1.4,5.9,2.7,15.4,3.6,28.4c6.1-9.3,9.1-19.9,9.1-31.7c0-21.2-8.7-37.9-26.2-50.2
		l11.3-15.6c10.7,7.6,19.1,17.1,25.1,28.7c6,11.7,9,24,9,37.1c0,18.8-6.1,35.7-18.3,50.7c8,7.7,17.5,11.5,28.4,11.5L1551.9,288.9
		L1551.9,288.9z M1498.7,255c-3.7-7.8-5.5-16-5.5-24.3c0-25.3-13.5-47.1-40.4-65.2c-14.1,1.6-26.2,7.1-36.4,16.5
		c-10.1,9.4-15.2,20.9-15.2,34.8c0,15,6.1,27.4,18.4,36.9c12.2,9.6,26.2,14.3,41.8,14.3C1475.2,268,1487.7,263.7,1498.7,255z
		 M1478.5,124.4c0-4.5-1.5-8.3-4.5-11.3c-3-3-6.8-4.5-11.3-4.5c-4.7,0-8.5,1.5-11.4,4.5c-3,3-4.5,6.8-4.5,11.3
		c0,9.6,3.7,16.7,11.3,21.2c4.3-0.3,8.8-2.9,13.5-7.6C1476.2,133.2,1478.5,128.7,1478.5,124.4z"/>
	<g id="Capa_4_2_">
		
			<linearGradient id="SVGID_5_" gradientUnits="userSpaceOnUse" x1="81.5942" y1="334.4797" x2="519.5689" y2="200.5774" gradientTransform="matrix(-1 0 0 -1 2974.4202 393.8933)">
			<stop  offset="5.795645e-02" style="stop-color:#FFFFFF"/>
			<stop  offset="0.1214" style="stop-color:#CBFFFF"/>
			<stop  offset="0.1572" style="stop-color:#96FFFF"/>
			<stop  offset="0.203" style="stop-color:#68FFFF"/>
			<stop  offset="0.254" style="stop-color:#43FFFF"/>
			<stop  offset="0.316" style="stop-color:#25FFFF"/>
			<stop  offset="0.371" style="stop-color:#11FFFF"/>
			<stop  offset="0.4846" style="stop-color:#04FFFF"/>
			<stop  offset="0.6067" style="stop-color:#00FFFF"/>
			<stop  offset="0.9123" style="stop-color:#019471"/>
		</linearGradient>
		<path class="st18" d="M2444.3,158.8v-54.4h462.3c-0.3,14.8-4.6,27.7-12.9,38.4c-8.4,10.9-18.5,16.1-30.2,16.1H2444.3z"/>
		
			<linearGradient id="SVGID_6_" gradientUnits="userSpaceOnUse" x1="120.4402" y1="261.3687" x2="521.309" y2="138.8108" gradientTransform="matrix(-1 0 0 -1 2974.4202 393.8933)">
			<stop  offset="5.795645e-02" style="stop-color:#FFFFFF"/>
			<stop  offset="0.1214" style="stop-color:#CBFFFF"/>
			<stop  offset="0.1572" style="stop-color:#96FFFF"/>
			<stop  offset="0.203" style="stop-color:#68FFFF"/>
			<stop  offset="0.254" style="stop-color:#43FFFF"/>
			<stop  offset="0.316" style="stop-color:#25FFFF"/>
			<stop  offset="0.371" style="stop-color:#11FFFF"/>
			<stop  offset="0.4846" style="stop-color:#04FFFF"/>
			<stop  offset="0.6067" style="stop-color:#00FFFF"/>
			<stop  offset="0.9025" style="stop-color:#008C4C"/>
		</linearGradient>
		<path class="st19" d="M2444.3,226.3v-54.4H2866c-0.3,14.8-4.6,27.7-12.9,38.4c-8.4,10.9-18.6,16.1-30.4,16.1H2444.3z"/>
		
			<linearGradient id="SVGID_7_" gradientUnits="userSpaceOnUse" x1="159.5228" y1="188.3805" x2="523.0537" y2="77.2379" gradientTransform="matrix(-1 0 0 -1 2974.4202 393.8933)">
			<stop  offset="5.795645e-02" style="stop-color:#FFFFFF"/>
			<stop  offset="0.1214" style="stop-color:#CBFFFF"/>
			<stop  offset="0.1572" style="stop-color:#96FFFF"/>
			<stop  offset="0.203" style="stop-color:#68FFFF"/>
			<stop  offset="0.254" style="stop-color:#43FFFF"/>
			<stop  offset="0.316" style="stop-color:#25FFFF"/>
			<stop  offset="0.371" style="stop-color:#11FFFF"/>
			<stop  offset="0.4846" style="stop-color:#04FFFF"/>
			<stop  offset="0.6067" style="stop-color:#00FFFF"/>
			<stop  offset="0.9025" style="stop-color:#008C4C"/>
		</linearGradient>
		<path class="st20" d="M2444.3,293.6v-54.4h380.9c-0.1,14.8-4.3,27.7-12.7,38.2c-8.4,10.7-18.6,16.2-30.4,16.2H2444.3z"/>
	</g>
	<g>
		<path class="st16" d="M1918.8,369.3h-129.4c-49.2,0-91.1-17.3-125.7-52.1c-34.7-34.8-51.9-76.8-51.9-125.9
			c0-49.4,17.2-91.5,51.7-126.3c34.4-34.8,76.4-52.1,125.9-52.1h85.7v34.8h-85.7c-39.8,0-73.7,14-101.7,42c-28,28-42,61.9-42,101.7
			c0,39.4,14.1,73.2,42.2,101c28.1,27.9,62,41.8,101.4,41.8H1919v35.2H1918.8z"/>
		<path class="st16" d="M2281.6,369.3h-104.2l-21-44.2h-197.7l-21.4,44.2h-38.1l172-356.4h42.5L2281.6,369.3z M2140.1,290.4
			l-81.5-171.6l-83.2,171.6H2140.1z"/>
		<path class="st16" d="M2515.7,47.5h-94.3v321.6h-101.3V47.5h-94.7V12.8h290.3L2515.7,47.5L2515.7,47.5z"/>
	</g>
</g>
<g id="lineas">
	<g id="Capa_3_1_" class="st0">
		<rect x="577.1" y="-87" class="st6" width="1773" height="568.7"/>
	</g>
	<g id="Layer_1_1_" class="st0">
		<path class="st7" d="M1899.9,280.4c-14.4,3.3-52.3,5.2-52.3,5.2l-4.8,15c0,0,18.9-1.6,32.7-0.2c0,0,4.5-0.5,5,5.1
			c0.1,3.6,0,7.2-0.4,10.8c0,0-0.3,3.4-5.1,4.2c-5.2,0.9-40.8,2.2-40.8,2.2l-5.8,19.5c0,0-2.1,4.5,2.7,3.2
			c4.5-1.2,41.8-8.2,46.7-7.2c5.2,1.3,11,8.2,9.3,14.6c-2,7.8-39.2,31.6-61.9,29.9c0,0-11.9,0.8-22-15.3
			c-9.4-15.3,3.6-44.4,3.6-44.4s-5.9-13.6-1.6-18.1c0,0,2.6-2.3,10-2.9l9.1-18.9c0,0-10.4,0.7-16.6-6.9c-5.8-7.3-6.2-10.6-1.8-12.6
			c4.7-2.3,48-10.2,77.8-9.2c0,0,10.4-1,19.3,17C1902.9,271.4,1907.3,278.7,1899.9,280.4L1899.9,280.4z M1787.8,353
			c-3.8,9-13.9,18.6-26.4,12.6s-32.1-46.3-32.1-46.3s-7.5-15-8.9-14.7c0,0-1.6-2.9-2.6,13.5s0.2,48.3-6.3,53.3
			c-6.2,5-13.7,3-17.6-2.9c-3.5-5.8-5-19.6-3.1-43.8c2.3-24.2,7.9-50,15.1-58.1s13-2.2,15.2-0.1c0,0,9.6,8.7,25.5,34.3l2.8,4.7
			c0,0,14.4,24.2,15.9,24.1c0,0,1.2,1.1,2.2,0.3c1.5-0.4,0.9-8.2,0.9-8.2s-3-26.3-16.1-70.9c0,0-2-5.6-0.6-10.8
			c1.4-5.2,6.6-2.8,6.6-2.8s20.4,10.2,30.2,43.4C1798.2,314.1,1791.6,344,1787.8,353L1787.8,353z M1687.6,267.7
			c-1.7,3.4-2.7,8.3-11.3,9.6c0,0-82.3,5.6-86.2,11.4c0,0-2.9,3.4,1.6,4.4s23.1,3.4,32.1,3.9c9.6,0.1,42,0.4,53.6,14.9
			c0,0,6.9,6.9,6.6,22.5c-0.3,16-3.1,21.6-9.3,27.4c-6.5,5.4-62.3,30.4-98.3-8c0,0-16.6-18.5,5.7-32.5c0,0,16.1-9.7,57,1.7
			c0,0,12.4,4.5,11.8,9c-0.7,4.8-10.2,9.9-24,9.6c-13.4-0.4-23.2-6.8-21.3-5.8c1.8,0.7-14.4-7.8-19.4-2c-5,5.3-3.8,8.6,1.1,11.9
			c12.5,7.1,60.8,4.6,75.2-11.4c0,0,5.7-6.5-3-11.8c-8.7-5-33.6-8-43.3-8.5c-9.3-0.5-43.9,0.1-48.9-9.1c0,0-5-6.2,0.5-23.8
			c5.8-18.4,46.1-25.5,63.5-27.1c0,0,47.9-1.7,56.7,8.1C1688.6,263.9,1688.5,266,1687.6,267.7L1687.6,267.7z M1551.6,375.6
			c-5.8,4.3-18.1,2.4-21.6-2.4c-3.5-4.3-4.7-21.4-4-48.2c0.7-27.1,1.3-60.7,7.1-66c6.2-5.4,10-0.7,12.4,3c2.6,3.6,5.7,7.6,6.4,16.1
			c0.7,8.5,2.6,53.1,2.6,53.1S1557.1,371.4,1551.6,375.6z M1564.1,231.8c-16.9,5.6-28.5,3.7-38.3-0.5c-4.3,7.5-6.8,9.8-10.1,10.3
			c-4.8,0.5-9.1-7.2-9.9-9.7c-0.8-1.9-3.1-5.1-0.3-12.7c-9.6-8.6-10.3-20.2-8.7-28c2.4-9,18.6-43.2,67.9-47.2
			c0,0,24.1-1.8,28.2,11.1h0.7c0,0,23.4,0.1,22.9,20.9C1616.2,196.9,1590.5,222.9,1564.1,231.8L1564.1,231.8z M1518.1,185.5
			c-5,8-5.2,12.8-2.9,16.1c5.7-8.7,16.1-22.4,31.4-32.8C1534.8,169.8,1524.9,174.9,1518.1,185.5z M1586.2,172.1
			c-15.5,2.3-39.5,23.1-50.9,40.1c17.5,3.2,48.4,2,62.1-25.9C1597.3,186.3,1603.9,169,1586.2,172.1z M2007,333.2
			c-9.3,16.2-35.4,50-70.2,42.1c-11.5,27.9-21.1,56-26.6,98.2c0,0-1.2,8.2-8,5.3c-6.7-2.4-17.9-13.6-20.1-29.1
			c-2.4-20.4,6.7-54.9,25.2-94.4c-5.4-8.8-9.1-21.4-5.9-39.3c0,0,4.7-33.2,38-63.2c0,0,4-3.5,6.3-2.4c2.6,1.1,1.4,11.9-0.7,17.1
			s-17,31-17,31s-9.3,17.4-6.7,31.1c17.5-26.9,57.3-81.2,82-64.1c8.3,5.9,12.1,18.8,12.1,32.7C2015.3,310.5,2012.4,323.5,2007,333.2
			L2007,333.2z M1999.8,290.6c0,0-1.4-10.7-11.8,1.1c-9,9.9-25.2,28.6-38.3,53.9c13.7-1.5,26.9-9,30.9-12.8
			C1987.1,327,2002.2,311.4,1999.8,290.6L1999.8,290.6z M1514.3,304.2c-1.9,24.2-11.2,64.9-77.1,85c-43.5,13.1-84.6,6.8-107,1.1
			c-0.5,8.9-1.5,12.7-2.9,14.2c-1.9,1.9-16.1,10.1-23.9-1.5c-3.5-5.5-5.3-15.5-6.3-24.4c-50.4-23.2-73.6-56.6-74.5-58.1
			c-1.1-1.1-12.6-13.1-1.1-27.8c10.8-13.3,46.1-26.6,77.9-32c1.1-27.2,4.3-47.7,8.1-57.1c4.6-10.9,10.4-1.1,15.4,6.3
			c4.2,5.5,6.7,29.2,6.9,48.1c20.8-1,33.1,0.5,56.3,4.7c30.2,5.5,50.4,20.9,48.6,38.4c-1.3,17.2-17.1,24.3-23.1,24.8
			c-6.3,0.5-16.1-4-16.1-4c-6.7-3.2-0.5-6,7.6-9.5c8.8-4.3,6.8-8.7,6.8-8.7c-3.3-9.6-42.5-16.3-81.5-16.3c-0.2,21.5,0.9,57.2,1.4,78
			c27.3,5.2,47.7,4.2,47.7,4.2s99.6-2.8,102.6-66.4s-99.3-124.8-175-144.2c-75.6-19.8-118.4-6-122.1-4.1c-4,2-0.3,2.6-0.3,2.6
			c3.8,0.7,7.6,1.7,11.2,3c7.5,2.4,1.7,6.3,1.7,6.3c-12.9,4.1-27.4,1.5-30.2-4.4c-2.8-5.9,1.9-11.2,7.3-18.8
			c5.4-8,11.3-7.7,11.3-7.7c93.5-32.4,207.4,26.2,207.4,26.2C1498.1,216.2,1516.3,279.6,1514.3,304.2z M1232.1,300.9
			c-10.6,5.2-3.3,12.7-3.3,12.7c19.9,21.4,44.4,34.8,67.7,43.1c2.7-36.9,2.3-49.9,2.6-68.5C1262.7,290.7,1241.7,296.5,1232.1,300.9
			L1232.1,300.9z"/>
		<path class="st7" d="M2205,293.3v13.2c0,2.8-2.3,5.2-5.1,5.2h-0.1h-62.9c0,3.3,0.1,6.2,0.1,8.9c0.1,17.8-0.8,35.6-2.7,53.3
			c-0.2,2.6-2.4,4.7-5.1,4.7h-13.6c-1.4,0-2.7-0.6-3.6-1.6c-0.9-1-1.4-2.4-1.2-3.8c1.9-17.5,2.8-35,2.8-52.6c0-2.8,0-5.7-0.1-8.9
			h-62.2c-2.8,0-5.2-2.3-5.2-5.1v-0.1v-13.2c0-2.8,2.3-5.2,5.1-5.2h0.1h61.3c-1.2-21.2-3.9-42.3-8.1-63.2c-0.2-1.3,0.1-2.6,0.9-3.6
			s2-1.6,3.3-1.6h14.7c2.3,0,4.3,1.6,4.7,3.9c4,21.3,6.7,42.9,8,64.5h63.7C2202.7,288.1,2205,290.4,2205,293.3z"/>
		<path class="st8" d="M1364.3,119L1364.3,119 M1363.5,119.1c-0.3,0-0.6-0.1-0.9-0.1C1362.9,119.1,1363.2,119.1,1363.5,119.1
			L1363.5,119.1z M1363.5,119.1c-0.3,0-0.6-0.1-0.9-0.1C1362.9,119.1,1363.2,119.1,1363.5,119.1L1363.5,119.1z"/>
		
			<radialGradient id="SVGID_8_" cx="2106.6648" cy="-79.1983" r="760.12" gradientTransform="matrix(1 0 0 -1 0 115.4036)" gradientUnits="userSpaceOnUse">
			<stop  offset="1.000000e-02" style="stop-color:#FFFFFF"/>
			<stop  offset="3.000000e-02" style="stop-color:#CBFFFF"/>
			<stop  offset="6.000000e-02" style="stop-color:#96FFFF"/>
			<stop  offset="8.000000e-02" style="stop-color:#68FFFF"/>
			<stop  offset="0.11" style="stop-color:#43FFFF"/>
			<stop  offset="0.14" style="stop-color:#25FFFF"/>
			<stop  offset="0.16" style="stop-color:#11FFFF"/>
			<stop  offset="0.19" style="stop-color:#04FFFF"/>
			<stop  offset="0.22" style="stop-color:#00FFFF"/>
			<stop  offset="1" style="stop-color:#0000FF;stop-opacity:0"/>
		</radialGradient>
		<path class="st21" d="M2119.4,188.6C2028.1-36,1772-144,1547.5-52.7c-81.5,33.1-151.2,90-200,163.3c-0.9,1.3-1.1,3-0.6,4.5
			s1.7,2.7,3.2,3.2l11.4,3.9c0.6,0.2,1.3,0.3,2,0.3c2.1,0,4.1-1.1,5.3-2.8c77.3-114,206.2-182.2,343.9-182.2
			c167.1,0,318,100,383.1,253.9c0.9,2.2,3.1,3.7,5.5,3.7h13.6c1.6,0,3-0.8,3.9-2.1C2119.8,191.8,2120,190.1,2119.4,188.6z
			 M1363.5,119.1c-0.3,0-0.6-0.1-0.9-0.2C1362.9,119,1363.2,119.1,1363.5,119.1L1363.5,119.1z M2098.5,193.3
			c0.3,0.2,0.6,0.4,0.9,0.5C2099.1,193.6,2098.8,193.5,2098.5,193.3z"/>
	</g>
	<g id="TXT_1_" class="st0">
		<text transform="matrix(1 0 0 1 910.1452 310.7018)" class="st7 st10 st11 st12">DOG &amp; CAT</text>
		<text transform="matrix(1 0 0 1 910.1447 418.7013)" class="st7 st13 st14 st15">HOSPITAL</text>
	</g>
</g>
</svg>
