<?xml version="1.0" encoding="utf-8"?>
<!-- Generator: Adobe Illustrator 24.3.0, SVG Export Plug-In . SVG Version: 6.00 Build 0)  -->
<svg version="1.1" xmlns="http://www.w3.org/2000/svg" xmlns:xlink="http://www.w3.org/1999/xlink" x="0px" y="0px"
	 viewBox="0 0 1773 568.7" style="enable-background:new 0 0 1773 568.7;" xml:space="preserve">
<style type="text/css">
	.st0{display:none;}
	.st1{display:inline;fill:#3239B2;}
	.st2{display:inline;fill:#FFFFFF;}
	.st3{display:inline;fill:none;}
	.st4{display:inline;fill:url(#SVGID_1_);}
	.st5{font-family:'BoogieNightsNF';}
	.st6{font-size:269.2396px;}
	.st7{letter-spacing:-27;}
	.st8{font-family:'Mascarpone-Oblique';}
	.st9{font-size:116px;}
	.st10{letter-spacing:9;}
	.st11{fill:#FFFFFF;}
	.st12{fill:url(#SVGID_2_);}
	.st13{fill:url(#SVGID_3_);}
	.st14{fill:url(#SVGID_4_);}
</style>
<g id="Capa_3" class="st0">
	<rect class="st1" width="1773" height="568.7"/>
</g>
<g id="Layer_1" class="st0">
	<path class="st2" d="M1322.8,367.4c-14.4,3.3-52.3,5.2-52.3,5.2l-4.8,15c0,0,18.9-1.6,32.7-0.2c0,0,4.5-0.5,5,5.1
		c0.1,3.6,0,7.2-0.4,10.8c0,0-0.3,3.4-5.1,4.2c-5.2,0.9-40.8,2.2-40.8,2.2l-5.8,19.5c0,0-2.1,4.5,2.7,3.2c4.5-1.2,41.8-8.2,46.7-7.2
		c5.2,1.3,11,8.2,9.3,14.6c-2,7.8-39.2,31.6-61.9,29.9c0,0-11.9,0.8-22-15.3c-9.4-15.3,3.6-44.4,3.6-44.4s-5.9-13.6-1.6-18.1
		c0,0,2.6-2.3,10-2.9l9.1-18.9c0,0-10.4,0.7-16.6-6.9c-5.8-7.3-6.2-10.6-1.8-12.6c4.7-2.3,48-10.2,77.8-9.2c0,0,10.4-1,19.3,17
		C1325.8,358.4,1330.2,365.7,1322.8,367.4L1322.8,367.4z M1210.7,440c-3.8,9-13.9,18.6-26.4,12.6s-32.1-46.3-32.1-46.3
		s-7.5-15-8.9-14.7c0,0-1.6-2.9-2.6,13.5s0.2,48.3-6.3,53.3c-6.2,5-13.7,3-17.6-2.9c-3.5-5.8-5-19.6-3.1-43.8
		c2.3-24.2,7.9-50,15.1-58.1s13-2.2,15.2-0.1c0,0,9.6,8.7,25.5,34.3l2.8,4.7c0,0,14.4,24.2,15.9,24.1c0,0,1.2,1.1,2.2,0.3
		c1.5-0.4,0.9-8.2,0.9-8.2s-3-26.3-16.1-70.9c0,0-2-5.6-0.6-10.8c1.4-5.2,6.6-2.8,6.6-2.8s20.4,10.2,30.2,43.4
		C1221.1,401.1,1214.5,431,1210.7,440L1210.7,440z M1110.5,354.7c-1.7,3.4-2.7,8.3-11.3,9.6c0,0-82.3,5.6-86.2,11.4
		c0,0-2.9,3.4,1.6,4.4s23.1,3.4,32.1,3.9c9.6,0.1,42,0.4,53.6,14.9c0,0,6.9,6.9,6.6,22.5c-0.3,16-3.1,21.6-9.3,27.4
		c-6.5,5.4-62.3,30.4-98.3-8c0,0-16.6-18.5,5.7-32.5c0,0,16.1-9.7,57,1.7c0,0,12.4,4.5,11.8,9c-0.7,4.8-10.2,9.9-24,9.6
		c-13.4-0.4-23.2-6.8-21.3-5.8c1.8,0.7-14.4-7.8-19.4-2c-5,5.3-3.8,8.6,1.1,11.9c12.5,7.1,60.8,4.6,75.2-11.4c0,0,5.7-6.5-3-11.8
		c-8.7-5-33.6-8-43.3-8.5c-9.3-0.5-43.9,0.1-48.9-9.1c0,0-5-6.2,0.5-23.8c5.8-18.4,46.1-25.5,63.5-27.1c0,0,47.9-1.7,56.7,8.1
		C1111.5,350.9,1111.4,353,1110.5,354.7L1110.5,354.7z M974.5,462.6c-5.8,4.3-18.1,2.4-21.6-2.4c-3.5-4.3-4.7-21.4-4-48.2
		c0.7-27.1,1.3-60.7,7.1-66c6.2-5.4,10-0.7,12.4,3c2.6,3.6,5.7,7.6,6.4,16.1s2.6,53.1,2.6,53.1S980,458.4,974.5,462.6z M987,318.8
		c-16.9,5.6-28.5,3.7-38.3-0.5c-4.3,7.5-6.8,9.8-10.1,10.3c-4.8,0.5-9.1-7.2-9.9-9.7c-0.8-1.9-3.1-5.1-0.3-12.7
		c-9.6-8.6-10.3-20.2-8.7-28c2.4-9,18.6-43.2,67.9-47.2c0,0,24.1-1.8,28.2,11.1h0.7c0,0,23.4,0.1,22.9,20.9
		C1039.1,283.9,1013.4,309.9,987,318.8L987,318.8z M941,272.5c-5,8-5.2,12.8-2.9,16.1c5.7-8.7,16.1-22.4,31.4-32.8
		C957.7,256.8,947.8,261.9,941,272.5z M1009.1,259.1c-15.5,2.3-39.5,23.1-50.9,40.1c17.5,3.2,48.4,2,62.1-25.9
		C1020.2,273.3,1026.8,256,1009.1,259.1z M1429.9,420.2c-9.3,16.2-35.4,50-70.2,42.1c-11.5,27.9-21.1,56-26.6,98.2
		c0,0-1.2,8.2-8,5.3c-6.7-2.4-17.9-13.6-20.1-29.1c-2.4-20.4,6.7-54.9,25.2-94.4c-5.4-8.8-9.1-21.4-5.9-39.3c0,0,4.7-33.2,38-63.2
		c0,0,4-3.5,6.3-2.4c2.6,1.1,1.4,11.9-0.7,17.1s-17,31-17,31s-9.3,17.4-6.7,31.1c17.5-26.9,57.3-81.2,82-64.1
		c8.3,5.9,12.1,18.8,12.1,32.7C1438.2,397.5,1435.3,410.5,1429.9,420.2L1429.9,420.2z M1422.7,377.6c0,0-1.4-10.7-11.8,1.1
		c-9,9.9-25.2,28.6-38.3,53.9c13.7-1.5,26.9-9,30.9-12.8C1410,414,1425.1,398.4,1422.7,377.6L1422.7,377.6z M937.2,391.2
		c-1.9,24.2-11.2,64.9-77.1,85c-43.5,13.1-84.6,6.8-107,1.1c-0.5,8.9-1.5,12.7-2.9,14.2c-1.9,1.9-16.1,10.1-23.9-1.5
		c-3.5-5.5-5.3-15.5-6.3-24.4c-50.4-23.2-73.6-56.6-74.5-58.1c-1.1-1.1-12.6-13.1-1.1-27.8c10.8-13.3,46.1-26.6,77.9-32
		c1.1-27.2,4.3-47.7,8.1-57.1c4.6-10.9,10.4-1.1,15.4,6.3c4.2,5.5,6.7,29.2,6.9,48.1c20.8-1,33.1,0.5,56.3,4.7
		c30.2,5.5,50.4,20.9,48.6,38.4c-1.3,17.2-17.1,24.3-23.1,24.8c-6.3,0.5-16.1-4-16.1-4c-6.7-3.2-0.5-6,7.6-9.5
		c8.8-4.3,6.8-8.7,6.8-8.7c-3.3-9.6-42.5-16.3-81.5-16.3c-0.2,21.5,0.9,57.2,1.4,78c27.3,5.2,47.7,4.2,47.7,4.2s99.6-2.8,102.6-66.4
		S803.7,265.4,728,246c-75.6-19.8-118.4-6-122.1-4.1c-4,2-0.3,2.6-0.3,2.6c3.8,0.7,7.6,1.7,11.2,3c7.5,2.4,1.7,6.3,1.7,6.3
		c-12.9,4.1-27.4,1.5-30.2-4.4s1.9-11.2,7.3-18.8c5.4-8,11.3-7.7,11.3-7.7c93.5-32.4,207.4,26.2,207.4,26.2
		C921,303.2,939.2,366.6,937.2,391.2z M655,387.9c-10.6,5.2-3.3,12.7-3.3,12.7c19.9,21.4,44.4,34.8,67.7,43.1
		c2.7-36.9,2.3-49.9,2.6-68.5C685.6,377.7,664.6,383.5,655,387.9L655,387.9z"/>
	<path class="st2" d="M1627.9,380.3v13.2c0,2.8-2.3,5.2-5.1,5.2c0,0-0.1,0-0.1,0h-62.9c0,3.3,0.1,6.2,0.1,8.9
		c0.1,17.8-0.8,35.6-2.7,53.3c-0.2,2.6-2.4,4.7-5.1,4.7h-13.6c-1.4,0-2.7-0.6-3.6-1.6c-0.9-1-1.4-2.4-1.2-3.8
		c1.9-17.5,2.8-35,2.8-52.6c0-2.8,0-5.7-0.1-8.9h-62.2c-2.8,0-5.2-2.3-5.2-5.1c0,0,0-0.1,0-0.1v-13.2c0-2.8,2.3-5.2,5.1-5.2
		c0,0,0.1,0,0.1,0h61.3c-1.2-21.2-3.9-42.3-8.1-63.2c-0.2-1.3,0.1-2.6,0.9-3.6c0.8-1,2-1.6,3.3-1.6h14.7c2.3,0,4.3,1.6,4.7,3.9
		c4,21.3,6.7,42.9,8,64.5h63.7C1625.6,375.1,1627.9,377.4,1627.9,380.3z"/>
	<path class="st3" d="M787.2,206h-0.1 M786.4,206.1c-0.3,0-0.6-0.1-0.9-0.1C785.8,206.1,786.1,206.1,786.4,206.1L786.4,206.1z
		 M786.4,206.1c-0.3,0-0.6-0.1-0.9-0.1C785.8,206.1,786.1,206.1,786.4,206.1L786.4,206.1z"/>
	
		<radialGradient id="SVGID_1_" cx="1529.52" cy="560.0898" r="760.12" gradientTransform="matrix(1 0 0 1 0 -278.4897)" gradientUnits="userSpaceOnUse">
		<stop  offset="1.000000e-02" style="stop-color:#FFFFFF"/>
		<stop  offset="3.000000e-02" style="stop-color:#CBFFFF"/>
		<stop  offset="6.000000e-02" style="stop-color:#96FFFF"/>
		<stop  offset="8.000000e-02" style="stop-color:#68FFFF"/>
		<stop  offset="0.11" style="stop-color:#43FFFF"/>
		<stop  offset="0.14" style="stop-color:#25FFFF"/>
		<stop  offset="0.16" style="stop-color:#11FFFF"/>
		<stop  offset="0.19" style="stop-color:#04FFFF"/>
		<stop  offset="0.22" style="stop-color:#00FFFF"/>
		<stop  offset="1" style="stop-color:#0000FF;stop-opacity:0"/>
	</radialGradient>
	<path class="st4" d="M1542.3,275.6C1451,51,1194.9-57,970.4,34.3c-81.5,33.1-151.2,90-200,163.3c-0.9,1.3-1.1,3-0.6,4.5
		c0.5,1.5,1.7,2.7,3.2,3.2l11.4,3.9c0.6,0.2,1.3,0.3,2,0.3c2.1,0,4.1-1.1,5.3-2.8C869,92.7,997.9,24.5,1135.6,24.5
		c167.1,0,318,100,383.1,253.9c0.9,2.2,3.1,3.7,5.5,3.7h13.6c1.6,0,3-0.8,3.9-2.1C1542.7,278.8,1542.9,277.1,1542.3,275.6z
		 M786.4,206.1c-0.3,0-0.6-0.1-0.9-0.2C785.8,206,786.1,206.1,786.4,206.1L786.4,206.1z M1521.4,280.3c0.3,0.2,0.6,0.4,0.9,0.5
		C1522,280.6,1521.7,280.5,1521.4,280.3z"/>
</g>
<g id="TXT" class="st0">
	<text transform="matrix(1 0 0 1 333.0005 397.7001)" class="st2 st5 st6 st7">DOG &amp; CAT</text>
	<text transform="matrix(1 0 0 1 333 505.6996)" class="st2 st8 st9 st10">HOSPITAL</text>
</g>
<g id="TXT_copia">
	<g>
		<path class="st11" d="M329.3,282.7c0,25.2-6.2,48.4-18.5,69.7c-12.4,21.3-29.2,38.1-50.5,50.5c-21.3,12.4-44.5,18.5-69.7,18.5H90
			V143.7h100.6c38.3,0,71,13.5,98.1,40.6C315.7,211.3,329.3,244.1,329.3,282.7z M302.5,282.7c0-31-10.9-57.4-32.7-79.2
			c-21.8-21.8-48.2-32.7-79.2-32.7h-15.4V394h15.4c30.7,0,57.1-10.9,79-32.6C291.6,339.7,302.5,313.4,302.5,282.7z"/>
		<path class="st11" d="M579.9,282.7c0,38.3-13.5,71-40.4,98.1c-27,27.1-59.6,40.6-97.9,40.6c-25.2,0-48.4-6.2-69.7-18.5
			c-21.3-12.4-38.1-29.2-50.5-50.5c-12.4-21.3-18.5-44.5-18.5-69.7c0-38.5,13.5-71.3,40.4-98.4c27-27.1,59.7-40.6,98.2-40.6
			c38.5,0,71.2,13.5,98.1,40.6C566.5,211.3,579.9,244.1,579.9,282.7z M520.7,361.5c21.8-21.6,32.7-47.9,32.7-78.9
			c0-31-10.9-57.4-32.7-79.2c-21.8-21.8-48.2-32.7-79.2-32.7c-31,0-57.4,10.9-79.2,32.7c-21.8,21.8-32.7,48.2-32.7,79.2
			c0,31,10.9,57.3,32.7,78.9c21.8,21.6,48.2,32.4,79.2,32.4C472.5,394,498.9,383.2,520.7,361.5z"/>
		<path class="st11" d="M793.1,421.4H692.5c-38.3,0-71.1-13.5-98.2-40.6c-27.2-27.1-40.8-59.8-40.8-98.1c0-38.5,13.5-71.3,40.6-98.4
			c27.1-27.1,59.9-40.6,98.4-40.6h100.6v27.1H692.5c-30.7,0-57,10.9-78.9,32.7c-22.1,22.1-33.1,48.5-33.1,79.2
			c0,30.7,11,57,32.9,78.7c21.9,21.7,48.3,32.6,79,32.6h15.4V244.6h-73.2v-26.7h158.4V421.4z"/>
		<path class="st11" d="M1044,424.7c-22.7,0-42.1-8.2-58.1-24.7c-20.7,15.2-43.2,22.7-67.5,22.7c-18.7,0-36.5-4-53.3-12
			c-16.8-8-30.6-19.7-41.4-34.9c-10.8-15.3-16.2-32.4-16.2-51.3c0-22.1,6.9-41.5,20.7-58.3c13.8-16.8,31.5-28.6,53.1-35.3
			c-6.5-9.6-9.7-21.2-9.7-34.8c0-13.4,4.7-24.9,14.2-34.6c9.5-9.7,20.9-14.5,34.3-14.5c13.4,0,24.8,4.8,34.4,14.5
			c9.6,9.7,14.4,21.2,14.4,34.6c0,20-10,36-30.1,47.8c11.1,9.1,20.9,20,29.2,32.6c8.4,12.6,14.2,25.6,17.5,38.9
			c2,8.2,3.7,21.4,5,39.4c8.5-12.9,12.7-27.6,12.7-44.1c0-29.4-12.1-52.7-36.4-69.8l15.7-21.7c14.9,10.5,26.6,23.8,34.9,39.9
			c8.4,16.2,12.5,33.4,12.5,51.6c0,26.1-8.5,49.6-25.4,70.5c11.1,10.7,24.3,16,39.4,16V424.7z M970.2,377.6
			c-5.1-10.9-7.7-22.2-7.7-33.8c0-35.2-18.7-65.4-56.1-90.6c-19.6,2.2-36.4,9.9-50.5,22.9c-14,13-21.1,29.1-21.1,48.3
			c0,20.9,8.5,38,25.6,51.3c17,13.3,36.4,19.9,58,19.9C937.5,395.6,954.8,389.6,970.2,377.6z M942.1,196.1c0-6.2-2.1-11.5-6.3-15.7
			c-4.2-4.2-9.5-6.3-15.7-6.3c-6.5,0-11.8,2.1-15.9,6.3c-4.1,4.2-6.2,9.5-6.2,15.7c0,13.4,5.2,23.2,15.7,29.4
			c6-0.4,12.2-4,18.7-10.5C938.9,208.4,942.1,202.1,942.1,196.1z"/>
		<path class="st11" d="M1263.6,421.4h-66.8c-38.3,0-71-13.5-97.9-40.6c-27-27.1-40.4-59.8-40.4-98.1c0-38.5,13.4-71.3,40.3-98.4
			c26.8-27.1,59.5-40.6,98.1-40.6h66.8v27.1h-66.8c-31,0-57.4,10.9-79.2,32.7c-21.8,21.8-32.7,48.2-32.7,79.2
			c0,30.7,11,57,32.9,78.7c21.9,21.7,48.3,32.6,79,32.6h66.8V421.4z"/>
		<path class="st11" d="M1535.2,421.4H1454l-16.4-34.4h-154l-16.7,34.4h-29.7l134-277.7h33.1L1535.2,421.4z M1425,359.9l-63.5-133.7
			l-64.8,133.7H1425z"/>
		<path class="st11" d="M1681.6,170.7h-63.5v250.6h-78.9V170.7h-63.8v-27.1h206.2V170.7z"/>
	</g>
	<g>
		<path class="st11" d="M90.1,458.3l-14.3,81.2H57.2l5.8-33.3H51.5l-5.8,33.3H27l14.3-81.2h18.7l-7.2,40.9h11.5l7.2-40.9H90.1z"/>
		<path class="st11" d="M117.5,469.1c2.7-3.9,5.9-7,9.7-9.2c3.8-2.2,7.9-3.4,12.1-3.4c5.6,0,10,1.8,13.3,5.5c3.3,3.7,5,8.5,5,14.4
			c0,1.6-0.2,3.6-0.6,5.9l-5.8,33.1c-0.9,4.9-2.6,9.4-5.2,13.3c-2.6,3.9-5.8,7-9.6,9.2c-3.8,2.2-7.8,3.4-12.1,3.4
			c-5.6,0-10.1-1.9-13.5-5.6c-3.4-3.7-5.1-8.5-5.1-14.5c0-1.7,0.2-3.6,0.6-5.8l5.8-33.1C113.1,477.5,114.9,473,117.5,469.1z
			 M122.8,523.6c-0.2,0.9-0.2,1.7-0.2,2.3c0,1.5,0.3,2.8,0.9,3.9c0.6,1,1.6,1.6,2.9,1.6c1.5,0,2.9-0.8,3.9-2.4
			c1.1-1.6,1.8-3.4,2.1-5.3l8.5-48.4c0.5-2.8,0.7-4.7,0.7-5.8c0-1.4-0.3-2.5-0.8-3.2c-0.5-0.8-1.4-1.2-2.7-1.2
			c-2.2,0-3.7,0.8-4.6,2.5c-0.9,1.7-1.6,4.2-2.3,7.7L122.8,523.6z"/>
		<path class="st11" d="M180.2,520.4l1.5,2.3c1.8,2.6,3.2,4.4,4.2,5.6c1,1.2,2.3,2.1,3.8,2.8c1,0.5,2,0.7,3.1,0.7
			c2.1,0,4-0.8,5.7-2.3c1.7-1.5,2.7-3.1,3.1-4.7c0.1-0.3,0.1-0.7,0.1-1.3c0-1.5-0.4-3.1-1.3-4.8c-0.9-1.6-2.3-3.8-4.4-6.6
			c-2.1-2.9-3.8-5.5-5.1-7.8c-3.2-5.2-5.4-9.4-6.6-12.8c-1.2-3.3-1.9-6.4-1.9-9.2c0-1,0.2-2.5,0.5-4.5c1.3-7.3,4.6-12.8,9.9-16.5
			c5.3-3.6,11.3-5.5,18.2-5.5c4.1,0,7.4,1.1,9.9,3.3c2.5,2.2,4.9,5.4,7.3,9.7l-5.9,4.9l-4.3-5.2c-1.6-2.1-3.7-3.1-6.3-3.1
			c-2.6,0-4.9,1-7,3c-2.1,2-3.3,4.4-3.6,7.2c-0.1,0.4-0.1,1-0.1,1.9c0,2.7,0.6,5.1,1.8,7.3c1.2,2.2,2.9,4.7,5.2,7.7
			c0.7,0.8,1.4,1.7,2.1,2.7c2.8,4.1,5.1,8,6.8,11.8c1.8,3.8,2.7,7.6,2.7,11.4c0,1.2-0.1,2.3-0.3,3.5c-1,5.9-3.8,10.7-8.2,14.3
			c-4.5,3.7-9.8,5.5-15.9,5.5c-4.2,0-8-1.4-11.4-4.2c-3.4-2.8-6.7-6.7-9.7-11.8L180.2,520.4z"/>
		<path class="st11" d="M294.6,463.3c3.8,3.4,5.7,8.6,5.7,15.8c0,3-0.3,6.5-1,10.3c-1.7,9.7-5.2,16.9-10.6,21.5
			c-5.4,4.6-12.7,6.8-22.1,6.8l-3.8,21.7H244l14.3-81.2H277C284.9,458.3,290.8,460,294.6,463.3z M284.5,476.6c0-3-0.8-5.4-2.4-7.2
			c-1.6-1.8-3.8-2.7-6.7-2.8l-7.3,41.6c1.6-0.1,3.4-0.6,5.3-1.5c1.9-0.9,3.6-2.3,5-4.2c1.5-1.9,2.4-4.2,2.9-7l2.9-15.9
			C284.4,478.9,284.5,477.9,284.5,476.6z"/>
		<path class="st11" d="M349,458.3l-14.3,81.2h-18.7l14.3-81.2H349z"/>
		<path class="st11" d="M424.9,465.8h-17.4l-13,73.7h-18.7l13-73.7h-18.2l1.3-7.5h54.3L424.9,465.8z"/>
		<path class="st11" d="M474.2,539.5h-18.7v-17.4H443l-6.1,17.4h-9.4l28.2-80.5v-0.7h18.7L474.2,539.5z M455.5,512.8l0.1-26.9
			l-9.4,26.9H455.5z"/>
		<path class="st11" d="M536.7,532l-1.3,7.5H497l14.3-81.2H530L517,532H536.7z"/>
	</g>
</g>
<g id="Capa_4">
	<linearGradient id="SVGID_2_" gradientUnits="userSpaceOnUse" x1="916.9022" y1="-97.9807" x2="1737.7375" y2="152.9738">
		<stop  offset="5.795645e-02" style="stop-color:#FFFFFF"/>
		<stop  offset="0.1214" style="stop-color:#CBFFFF"/>
		<stop  offset="0.1572" style="stop-color:#96FFFF"/>
		<stop  offset="0.203" style="stop-color:#68FFFF"/>
		<stop  offset="0.254" style="stop-color:#43FFFF"/>
		<stop  offset="0.316" style="stop-color:#25FFFF"/>
		<stop  offset="0.371" style="stop-color:#11FFFF"/>
		<stop  offset="0.4846" style="stop-color:#04FFFF"/>
		<stop  offset="0.6067" style="stop-color:#00FFFF"/>
		<stop  offset="0.9123" style="stop-color:#019471"/>
	</linearGradient>
	<path class="st12" d="M916,46.7c-9.2,0-17.2-2.9-23.8-9c-6.6-6-10-13.2-10.2-21.5h888.2v30.5H916z"/>
	<linearGradient id="SVGID_3_" gradientUnits="userSpaceOnUse" x1="947.5656" y1="-55.7462" x2="1739.1078" y2="186.2525">
		<stop  offset="5.795645e-02" style="stop-color:#FFFFFF"/>
		<stop  offset="0.1214" style="stop-color:#CBFFFF"/>
		<stop  offset="0.1572" style="stop-color:#96FFFF"/>
		<stop  offset="0.203" style="stop-color:#68FFFF"/>
		<stop  offset="0.254" style="stop-color:#43FFFF"/>
		<stop  offset="0.316" style="stop-color:#25FFFF"/>
		<stop  offset="0.371" style="stop-color:#11FFFF"/>
		<stop  offset="0.4846" style="stop-color:#04FFFF"/>
		<stop  offset="0.6067" style="stop-color:#00FFFF"/>
		<stop  offset="0.9025" style="stop-color:#008C4C"/>
	</linearGradient>
	<path class="st13" d="M948.2,84.5c-9.3,0-17.4-2.9-24-9c-6.6-6-10-13.2-10.2-21.5h856.2v30.5H948.2z"/>
	<linearGradient id="SVGID_4_" gradientUnits="userSpaceOnUse" x1="978.3642" y1="-13.4903" x2="1740.4835" y2="219.5129">
		<stop  offset="5.795645e-02" style="stop-color:#FFFFFF"/>
		<stop  offset="0.1214" style="stop-color:#CBFFFF"/>
		<stop  offset="0.1572" style="stop-color:#96FFFF"/>
		<stop  offset="0.203" style="stop-color:#68FFFF"/>
		<stop  offset="0.254" style="stop-color:#43FFFF"/>
		<stop  offset="0.316" style="stop-color:#25FFFF"/>
		<stop  offset="0.371" style="stop-color:#11FFFF"/>
		<stop  offset="0.4846" style="stop-color:#04FFFF"/>
		<stop  offset="0.6067" style="stop-color:#00FFFF"/>
		<stop  offset="0.9025" style="stop-color:#008C4C"/>
	</linearGradient>
	<path class="st14" d="M980.2,122.2c-9.3,0-17.4-3.1-24-9.1c-6.6-5.9-9.9-13.1-10-21.4h824v30.5H980.2z"/>
</g>
</svg>
