<?xml version="1.0" encoding="utf-8"?>
<!-- Generator: Adobe Illustrator 24.3.0, SVG Export Plug-In . SVG Version: 6.00 Build 0)  -->
<svg version="1.1" xmlns="http://www.w3.org/2000/svg" xmlns:xlink="http://www.w3.org/1999/xlink" x="0px" y="0px"
	 viewBox="0 0 36 36" style="enable-background:new 0 0 36 36;" xml:space="preserve">
<style type="text/css">
	.st0{display:none;}
	.st1{fill:#4327CC;}
	.st2{display:inline;}
	.st3{fill:#009471;}
	.st4{display:inline;fill:#FFFFFF;}
	.st5{display:inline;fill:url(#SVGID_1_);}
	.st6{display:inline;fill:url(#SVGID_2_);}
	.st7{display:inline;fill:url(#SVGID_3_);}
	.st8{display:inline;fill:url(#SVGID_4_);}
	.st9{fill:#FFFFFF;}
</style>
<g id="Capa_2" class="st0">
</g>
<g id="Capa_3">
	<path class="st1" d="M26.5,36h-17C4.3,36,0,31.7,0,26.5v-17C0,4.3,4.3,0,9.5,0h17C31.7,0,36,4.3,36,9.5v17C36,31.7,31.7,36,26.5,36
		z"/>
</g>
<g id="Capa_1" class="st0">
	<g class="st2">
		<path class="st3" d="M22.8,36h-9.6V22.8H0v-9.6h13.2V0h9.6v13.2H36v9.6H22.8V36z"/>
	</g>
	<path class="st4" d="M27,26.6c-1.5,0-2.9-0.6-3.9-1.7c-1.4,1-2.9,1.5-4.6,1.5c-1.3,0-2.5-0.3-3.6-0.8s-2.1-1.3-2.8-2.4
		c-0.7-1-1.1-2.2-1.1-3.5c0-1.5,0.5-2.8,1.4-4c0.9-1.1,2.1-1.9,3.6-2.4c-0.4-0.7-0.7-1.4-0.7-2.4c0-0.9,0.3-1.7,1-2.3
		c0.6-0.7,1.4-1,2.3-1c0.9,0,1.7,0.3,2.3,1c0.7,0.7,1,1.4,1,2.3c0,1.4-0.7,2.4-2,3.2c0.8,0.6,1.4,1.4,2,2.2s1,1.7,1.2,2.6
		c0.1,0.6,0.3,1.5,0.3,2.7c0.6-0.9,0.9-1.9,0.9-3c0-2-0.8-3.6-2.5-4.7l1.1-1.5c1,0.7,1.8,1.6,2.4,2.7c0.6,1.1,0.8,2.3,0.8,3.5
		c0,1.8-0.6,3.4-1.7,4.8c0.8,0.7,1.7,1.1,2.7,1.1L27,26.6L27,26.6z M22,23.4c-0.3-0.7-0.5-1.5-0.5-2.3c0-2.4-1.3-4.4-3.8-6.2
		c-1.3,0.2-2.5,0.7-3.4,1.6c-1,0.9-1.4,2-1.4,3.3c0,1.4,0.6,2.6,1.7,3.5c1.2,0.9,2.5,1.3,3.9,1.3C19.8,24.6,21,24.2,22,23.4z
		 M20.1,11.1c0-0.4-0.1-0.8-0.4-1.1c-0.3-0.3-0.6-0.4-1.1-0.4c-0.4,0-0.8,0.1-1.1,0.4c-0.3,0.3-0.4,0.6-0.4,1.1c0,0.9,0.3,1.6,1.1,2
		c0.4,0,0.8-0.3,1.3-0.7C19.9,11.9,20.1,11.5,20.1,11.1z"/>
	<linearGradient id="SVGID_1_" gradientUnits="userSpaceOnUse" x1="9.8066" y1="0.465" x2="9.8066" y2="13.2345">
		<stop  offset="0.8009" style="stop-color:#FFFFFF"/>
		<stop  offset="1" style="stop-color:#FFFFFF;stop-opacity:0"/>
	</linearGradient>
	<path class="st5" d="M19,4.3c-0.1-0.2-0.8-0.8-1.2-0.9c-0.4-0.1-1.1-0.4-2.1-0.5c-1.2-0.1-2.7-1-3.2-1.2c-1.1-0.3-2.1-1.1-2.8-1.2
		C9.1,0.4,8.5,0.5,8,0.5C7.4,0.6,6.4,1,6.4,1.3C6.3,1.5,5.5,0.9,5,0.9C4.6,0.8,4.1,0.9,3.9,1C3.7,1.1,3.2,1.6,3.2,2.3
		c0,0.6-0.2,1.2-0.1,2.2c0,0,0.4,0.1,0.7-0.1C3.9,4.2,4,4.1,4.2,3.8c0.1-0.2,0.4-0.5,0.7-0.7C5.1,2.9,5.2,3,5.6,3
		c0.5,0,0.7-0.3,0.8-0.4c0,0-0.3,0.4-0.4,0.5c-0.1,0.1-0.2,0-0.4,0c-0.2,0-0.4-0.1-0.6,0c-0.1,0-0.3,0.2-0.5,0.4
		C4.4,3.7,4.1,4.1,4,4.2C3.7,4.5,3.5,4.5,3.4,4.5c-0.1,0-0.3-0.1-0.3-0.1c0,0.1,0,0.3,0,0.4c0,0.4-1.3,1.1-2.3,5.5
		c-0.2,1-0.3,1.5-0.3,2.7h5.8c0,0-0.1-1.2,0-3C6.4,8.6,7,7.7,7.8,7.2c0.7-0.5,1.1-0.5,3.4-0.6c2.7-0.1,2.2-0.2,3.4-0.4
		c2.6-0.5,3.2-0.3,4.1-0.7C19.3,5.1,19.1,4.6,19,4.3z M10.3,3.1c-0.4,0-0.6-0.2-0.6-0.6c0-0.6,0.2-0.4,0.5-0.7
		c0.2-0.1,0.4,0.1,0.5,0.5C10.7,2.5,10.7,3.1,10.3,3.1z"/>
	<linearGradient id="SVGID_2_" gradientUnits="userSpaceOnUse" x1="31.9375" y1="33.2227" x2="31.9375" y2="36">
		<stop  offset="0.4084" style="stop-color:#FFFFFF"/>
		<stop  offset="1" style="stop-color:#FFFFFF;stop-opacity:0"/>
	</linearGradient>
	<path class="st6" d="M29.5,33.2c0,0.5,0.1,1,0.1,1.4c0,0.5,0,0.9,0,1.4h4.7c-0.3-0.5-0.6-0.9-1-1.3C32.3,33.6,31,33.2,29.5,33.2z"
		/>
	<linearGradient id="SVGID_3_" gradientUnits="userSpaceOnUse" x1="31.8296" y1="17.8403" x2="31.8296" y2="36">
		<stop  offset="0.9001" style="stop-color:#FFFFFF"/>
		<stop  offset="1" style="stop-color:#FFFFFF;stop-opacity:0"/>
	</linearGradient>
	<path class="st7" d="M35.8,35.7c-1.3-1.9-2.6-3.8-3.9-5.7c-1.2-1.8-2.3-3.7-2.7-5.9c-0.2-1.2-0.2-2.4,0.3-3.5
		c0.2-0.5,0.6-1,1.1-1.3c0.7-0.5,1.5-0.3,1.9,0.5c0,0.1,0.1,0.2,0.1,0.3c0.1,0.2,0.2,0.3,0.3,0.3c0.1-0.1,0.3-0.2,0.3-0.3
		c0.2-0.5-0.1-1.3-0.6-1.6c-1.1-0.7-2.5-0.5-3.5,0.5c-0.9,0.9-1.2,2-1.3,3.1c-0.3,2.8,0.6,5.4,2.1,7.7c1,1.6,2,3.1,3.3,4.4
		c0.6,0.6,1.1,1.3,1.5,2h1.2C35.9,35.9,35.8,35.8,35.8,35.7z"/>
	<linearGradient id="SVGID_4_" gradientUnits="userSpaceOnUse" x1="25.6845" y1="27.0161" x2="25.6845" y2="36">
		<stop  offset="0.8108" style="stop-color:#FFFFFF"/>
		<stop  offset="1" style="stop-color:#FFFFFF;stop-opacity:0"/>
	</linearGradient>
	<path class="st8" d="M26.8,28.1C26,27.2,24.9,27,23.5,27c0.3,0.4,0.6,0.7,0.7,0.9c-0.5,0.6-1.3,1-1.6,1.8c-0.2,0.5-0.5,0.9-0.7,1.4
		c-0.1,0.3,0,0.7,0.2,1.1c0.1,0.3,0.2,0.6,0.7,0.6c0.4,0,0.8-0.2,1.3-0.2c-0.6,1.1-0.9,2.3-1.1,3.5h6.3c0-1.6-0.2-3.2-0.6-4.8
		C28.4,30,27.7,29,26.8,28.1z M23.4,30.5c-0.1,0-0.2-0.2-0.2-0.3c0-0.2,0.1-0.3,0.2-0.3c0.1,0,0.2,0.2,0.2,0.3
		C23.7,30.3,23.6,30.5,23.4,30.5z"/>
</g>
<g id="Capa_1_copia">
	<g>
		<path class="st3" d="M22.8,36h-9.6V22.8H0v-9.6h13.2V0h9.6v13.2H36v9.6H22.8V36z"/>
	</g>
	<path class="st9" d="M27,26.6c-1.5,0-2.9-0.6-3.9-1.7c-1.4,1-2.9,1.5-4.6,1.5c-1.3,0-2.5-0.3-3.6-0.8s-2.1-1.3-2.8-2.4
		c-0.7-1-1.1-2.2-1.1-3.5c0-1.5,0.5-2.8,1.4-4c0.9-1.1,2.1-1.9,3.6-2.4c-0.4-0.7-0.7-1.4-0.7-2.4c0-0.9,0.3-1.7,1-2.3
		c0.6-0.7,1.4-1,2.3-1c0.9,0,1.7,0.3,2.3,1c0.7,0.7,1,1.4,1,2.3c0,1.4-0.7,2.4-2,3.2c0.8,0.6,1.4,1.4,2,2.2s1,1.7,1.2,2.6
		c0.1,0.6,0.3,1.5,0.3,2.7c0.6-0.9,0.9-1.9,0.9-3c0-2-0.8-3.6-2.5-4.7l1.1-1.5c1,0.7,1.8,1.6,2.4,2.7c0.6,1.1,0.8,2.3,0.8,3.5
		c0,1.8-0.6,3.4-1.7,4.8c0.8,0.7,1.7,1.1,2.7,1.1L27,26.6L27,26.6z M22,23.4c-0.3-0.7-0.5-1.5-0.5-2.3c0-2.4-1.3-4.4-3.8-6.2
		c-1.3,0.2-2.5,0.7-3.4,1.6c-1,0.9-1.4,2-1.4,3.3c0,1.4,0.6,2.6,1.7,3.5c1.2,0.9,2.5,1.3,3.9,1.3C19.8,24.6,21,24.2,22,23.4z
		 M20.1,11.1c0-0.4-0.1-0.8-0.4-1.1c-0.3-0.3-0.6-0.4-1.1-0.4c-0.4,0-0.8,0.1-1.1,0.4c-0.3,0.3-0.4,0.6-0.4,1.1c0,0.9,0.3,1.6,1.1,2
		c0.4,0,0.8-0.3,1.3-0.7C19.9,11.9,20.1,11.5,20.1,11.1z"/>
</g>
</svg>
