<?xml version="1.0" encoding="utf-8"?>
<!-- Generator: Adobe Illustrator 24.3.0, SVG Export Plug-In . SVG Version: 6.00 Build 0)  -->
<svg version="1.1" id="Capa_1" xmlns="http://www.w3.org/2000/svg" xmlns:xlink="http://www.w3.org/1999/xlink" x="0px" y="0px"
	 viewBox="0 0 346.5 513.7" style="enable-background:new 0 0 346.5 513.7;" xml:space="preserve">
<style type="text/css">
	.st0{opacity:5.000000e-02;}
</style>
<g class="st0">
	<path d="M29.5,401.1c-7.4-27.4-7.4-36.8-2.4-57.1c1-4.1,5.2-12.4,6.3-14.1c8.9-13.4,17.8-26.7,26.9-39.9
		c10.1-14.6,19.6-29.5,23.9-47.1c2.3-9.4,2.5-18.7,0.6-28.1c-1.3-6.5-4.2-12.2-9.6-16.2c-5.7-4.3-12.8-2.4-16.2,3.9
		c-0.8,1.5-2.4,2.7-3.6,4c-0.8-1.8-2.1-3.7-2.2-5.5c-0.2-7.1,5.1-12.2,13.4-13.3c11.4-1.6,22.4,5.8,27.1,18.8
		c5,13.9,4.3,28.2,0.5,42.2c-7.1,26.4-21.6,48.9-40.5,68c-13.6,13.7-19.6,32.5-19.8,50.9c-0.1,6.8,0.6,12.5,2,16.5
		C35.9,384,33.1,386.8,29.5,401.1z"/>
	<g>
		<path d="M318.3,331.2c-0.2-0.9-2.6-17.5-4-24.8c-0.7-3.6-16.2-50.9-22.8-62c-2.8-4.8-4.6-10.3-7.7-14.9
			c-3.5-5.2-7.7-9.9-11.9-14.4c-5.8-6.3-11.6-12.6-18-18.2c-14.5-12.5-29.6-24.3-44.2-36.7c-3.1-2.7-6.2-6.4-7.3-10.3
			c-2.2-7.6-3.1-15.6-4.5-23.5c-0.1-0.8-0.6-12.3,0-19.5c0.9-11.7,5.2-18.2,11.8-22.6c5.6-3.7,8.1-4.1,26.2-4.6
			c20.8-0.6,17-1.7,25.9-3.4c19.9-4,24.8-2.5,31.2-5.4c4.4-2,3.2-6.4,2.5-8.1c-0.7-1.7-6-5.9-9.1-6.9c-3.1-1-8.3-3.3-15.7-3.9
			c-8.9-0.8-20.6-7.9-24.7-9c-8.1-2.2-15.9-8.3-21.2-9.3c-5.1-0.9-9.9-0.6-13.9-0.1c-4.9,0.7-11.9,3.7-12.6,5.7
			c-0.7,2.1-6.7-2.6-10.5-3.2c-2.7-0.4-6.6,0-8.3,1c-1.7,1-5.1,4.8-5.3,9.6c-0.1,4.4-1.4,9-1,16.6c0,0,3.1,0.4,5.2-1.1
			c1.1-0.8,2-1.6,3.2-3.4c0.8-1.2,3.1-4.1,5.2-5.7c2.3-1.7,2.3-1.1,5.6-1c4,0.2,5.2-2.4,6.4-2.8c0,0-2.3,3.1-3,3.6
			c-0.8,0.5-1.5,0.2-3,0.2c-1.6,0-2.7-0.6-4.3,0c-0.9,0.3-2.4,1.7-3.6,2.8c-1.8,1.7-3.6,4.8-4.6,5.7c-2.1,1.9-3.8,2.6-4.9,2.6
			c-1.1,0-2.1-0.9-2.2-1c0,1,0.1,2,0.2,3.1c0.3,3.4-9.9,8.4-17.9,42.5c-1.7,7.3-3.4,20.9-3.7,22.2c-4.8,17.8-8.6,35.8-13.8,53.4
			c-4.5,15.4-5.4,30.6-1.7,46.2c3.7,15.4,11.3,29,19.3,42.5c3.2,5.4,6.2,11.7,6.9,17.8c1.5,13.2,1.9,26.5,2.1,39.8
			c0.2,14.7,0.1,29.5-0.7,44.1c-0.9,15.4-2.9,30.7-4.3,46c-0.8,8.2-0.9,16.5-2,24.7c-0.7,5.2-0.2,6.7,5.2,7c4,0.2,8.1-0.4,11.9,0.2
			c4.8,0.8,5.5-1,5.6-5.3c0.3-17.6,1-35.2,1.8-52.7c0.3-6.1,1.1-12.3,1.7-19.1c1.5,1.6,2.5,2.4,3.3,3.4c7.7,9.9,15.1,20.1,23.1,29.8
			c5,6.2,11.1,11.4,16.2,17.6c5.4,6.4,10.8,13,15,20.2c3.1,5.4,0.1,9.4-6.3,9.6c-10.1,0.3-20.1,0.4-30.2,0.1
			c-11.4-0.3-22.9-0.9-34.3-1.7c-8.1-0.5-15,1.8-20.7,7.5c-1.2,1.2-2.3,3.9-1.7,5c2.2,4.2,5.3,7.6,10.7,7.6
			c10.1-0.1,20.2-0.2,30.3,0.1c20.7,0.6,41.5,1.3,62.2,2.1c11.3,0.4,11.3,0.5,15.3-9.6c0.1-0.1,0.3-0.2,1.1-0.9
			c1.4,2.1,3,4.2,4.2,6.3c4.8,8.1,11.4,9.1,18.7,2.9c13.9-11.8,22.7-26.5,25.3-44.6c1.9-12.9,4.4-25.8,5.1-38.8
			C322.1,372,322.3,351.4,318.3,331.2z M228.2,43.7c1.2-0.9,3,0.7,3.6,3.5c0.3,1.2-0.3,6.2-3.1,6c-2.9-0.2-4.6-1.8-4.4-4.3
			C224.6,44.7,225.7,45.6,228.2,43.7z M272.6,390.2c-5.4-6.7-10.4-13.7-16.2-20c-3.3-3.5-8.2-5.5-12-8.6c-4.2-3.4-7.8-7.6-12-10.9
			c-10.1-7.9-22.5-8.6-34.4-9.7c-3.5-0.3-7.3,3.1-11.8,5.2c3.8-22,4.3-44.3,21.3-61.2c-0.2,1-0.3,2-0.7,2.9
			c-2.6,5.1-5.5,10.1-8,15.2c-1.9,3.8-0.8,7.5,2.4,9.7c6.8,4.6,14,8.7,21,13c10.5,6.4,23.3,9.9,29,22.1c2,4.3,2.1,9.4,3.2,14.1
			c0.4,1.6,0.8,3.8,1.9,4.6c8.4,5.6,13.5,13.8,18.8,22c0.5,0.9,0.3,2.2,0.4,3.3C274.6,391.4,273.3,391,272.6,390.2z"/>
		<path d="M144.1,293.2c-6.3-8.2-8-20.2-19.9-23.9c2.5-3.1,4.4-5.5,6.9-8.5c-9.5-0.4-17.6,1.2-24.3,7.1c-8.2,7.3-14,16.4-17.3,26.9
			c-5.9,18.9-6.4,38.3-3.3,57.6c2.6,16.7,6.3,33.2,9.2,49.8c3.9,22.6,2.6,45.3,1.7,68.1c0,0.8-0.6,1.6-0.8,2.3
			c-1.1-1.7-1.1-3.3-1.1-4.8c0.6-23.4,1.7-46.8-2.8-70c-5.5-28.6-12.8-57.1-8.8-86.5c0,0-1.7-0.6-3.1-0.7c-14-2.5-24.8,6.3-32.6,18
			C36.9,344.9,37,366.7,39.1,382c6.2-4,11.6-4.1,17.2-0.6c6.5,4,13.3,8.5,17.9,14.4c12.8,17,16.2,37,15.6,57.9
			c0,0.6-0.6,1.3-0.9,1.9c-1.3-1.6-1.4-3.1-1.5-4.6c-0.7-16.4-3.9-32.3-11.4-47c-4.5-8.7-10.5-16.1-19.8-20.2
			c-10.7-4.7-16.7-1.4-21.4,9.3c-5.1,11.7-6.3,34.4-2.3,43.4c5.1,13.4,11.1,26.4,23.6,34.6c2.2,1.5,5.2,2.6,7.8,2.6
			c16.5,0.2,33-0.1,49.5-0.1c5.2,0,10.5,0,15.9,0c-1.2-3.8-2.5-7.1-6.8-8.2c-0.8-0.2-1.6-1.9-1.8-3.1c-0.4-2.8-0.5-5.6-0.5-8.4
			c0.2-15.1,4.3-29.5,8.3-43.9c7.5-27,11.2-54.3,5.4-82.2c-1.5-7.4-4.2-14.5-6.3-22c3.1,0,6.2,0.1,9.4,0
			C141.4,306,146.7,296.5,144.1,293.2z M132,289.2c-1.2,0.1-2.2-1.1-2.3-2.6c-0.1-1.5,0.7-2.8,1.9-2.9c1.2-0.1,2.2,1.1,2.3,2.6
			S133.1,289.1,132,289.2z"/>
	</g>
</g>
</svg>
