<?xml version="1.0" encoding="utf-8"?>
<!-- Generator: Adobe Illustrator 24.3.0, SVG Export Plug-In . SVG Version: 6.00 Build 0)  -->
<svg version="1.1" xmlns="http://www.w3.org/2000/svg" xmlns:xlink="http://www.w3.org/1999/xlink" x="0px" y="0px"
	 viewBox="0 0 36 36" style="enable-background:new 0 0 36 36;" xml:space="preserve">
<style type="text/css">
	.st0{display:none;}
	.st1{display:inline;}
	.st2{fill:#FFFFFF;}
</style>
<g id="Capa_2" class="st0">
	<rect x="-0.1" class="st1" width="36" height="36"/>
</g>
<g id="Capa_1">
	<path class="st2" d="M12.6,18c0-4.6,0-9.2,0-13.7c0-0.8,0.2-1,1-1c6.2,0,12.5,0,18.7,0c0.9,0,1.1,0.2,1.1,1.1c0,9.1,0,18.3,0,27.4
		c0,0.4,0,0.7-0.4,0.9c-0.4,0.2-0.7,0-1-0.2c-0.7-0.5-1.5-1-2.2-1.5c-0.2-0.2-0.4-0.2-0.7,0c-0.8,0.6-1.5,1-2.3,1.6
		c-0.4,0.3-0.8,0.3-1.2,0c-0.7-0.5-1.5-1-2.2-1.5c-0.3-0.3-0.6-0.3-0.9,0c-0.7,0.5-1.4,1-2.1,1.5c-0.5,0.3-0.8,0.3-1.3,0
		c-0.7-0.5-1.5-1-2.3-1.6c-0.2-0.2-0.4-0.2-0.6,0c-0.8,0.5-1.6,1.1-2.4,1.6c-0.2,0.1-0.6,0.2-0.9,0.1c-0.4-0.1-0.4-0.5-0.4-0.8
		C12.7,27.2,12.6,22.6,12.6,18z M23,7.9c-1.8,0-3.5,0-5.3,0c-0.6,0-1.1,0-1.7,0c-0.4,0-0.7,0.2-0.7,0.6c0,0.5,0.2,0.7,0.7,0.7
		c0.1,0,0.3,0,0.4,0c4.4,0,8.8,0,13.2,0c0.2,0,0.4,0,0.6,0c0.4-0.1,0.6-0.4,0.5-0.8c-0.1-0.5-0.5-0.5-0.9-0.5
		C27.6,7.9,25.3,7.9,23,7.9z M23.1,20c-1.3,0-2.6,0-3.8,0c-1,0-2.1,0-3.1,0c-0.4,0-0.7,0.2-0.7,0.6c0,0.4,0.2,0.7,0.6,0.7
		c0.2,0,0.4,0,0.7,0c4.3,0,8.5,0,12.8,0c0.3,0,0.6,0,0.8-0.1c0.4-0.1,0.7-0.7,0.4-1c-0.2-0.2-0.5-0.3-0.8-0.3
		C27.6,19.9,25.3,20,23.1,20z M23.1,13.9c-1.2,0-2.4,0-3.6,0c-0.6,0-1.3,0-1.9,0c-0.4,0-0.6,0.3-0.6,0.6c0,0.4,0.2,0.6,0.5,0.7
		c0.2,0,0.4,0,0.6,0c3.3,0,6.6,0,9.9,0c0.2,0,0.4,0,0.5,0c0.2-0.2,0.5-0.4,0.6-0.6c0.1-0.4-0.2-0.7-0.9-0.7
		C26.5,13.9,24.8,13.9,23.1,13.9z"/>
	<path class="st2" d="M8.8,27.7c-2.1,0-4.2,0-6.4,0c0-5.9,0-11.8,0-17.7c2.1,0,4.2,0,6.4,0C8.8,15.8,8.8,21.7,8.8,27.7z"/>
	<path class="st2" d="M2.4,8.4c0-1-0.1-2,0-3c0.1-1,1-1.7,2-1.8c0.8,0,1.6,0,2.3,0c1.1,0,2,0.9,2.1,2c0,0.9,0,1.8,0,2.8
		C6.7,8.4,4.5,8.4,2.4,8.4z"/>
	<path class="st2" d="M2.7,29.1c1.9,0,3.8,0,5.7,0c-0.4,0.6-0.8,1.1-1.3,1.6c-0.3,0.4-0.7,0.8-1,1.2c-0.3,0.4-0.8,0.4-1.1,0.1
		C4.3,31.1,3.5,30.1,2.7,29.1z"/>
</g>
</svg>
